<svg xmlns="http://www.w3.org/2000/svg" width="160" height="160" viewBox="0 0 160 160" version="1.1"><path d="M 86.893 8.963 C 97.044 18.350, 108.014 23.665, 120.962 25.470 C 128.015 26.453, 125.151 25.187, 116.637 23.558 C 107.114 21.736, 98.662 17.644, 89.500 10.420 C 84.692 6.629, 83.876 6.173, 86.893 8.963 M 73.405 9.155 C 72.962 9.870, 73.130 10.038, 73.845 9.595 C 74.480 9.203, 75 8.684, 75 8.441 C 75 7.607, 74.117 8.002, 73.405 9.155 M 67 14.089 C 64.846 15.851, 64.804 15.986, 66.694 15.062 C 67.901 14.472, 69.165 13.542, 69.503 12.995 C 70.406 11.534, 69.800 11.799, 67 14.089 M 61.559 17.532 C 60.491 18.339, 60.099 19, 60.686 19 C 61.274 19, 62.315 18.325, 63 17.500 C 64.557 15.624, 64.067 15.634, 61.559 17.532 M 55.500 20.535 C 52.988 21.745, 52.906 21.882, 55 21.378 C 56.375 21.046, 57.928 20.376, 58.450 19.888 C 59.746 18.677, 59.034 18.833, 55.500 20.535 M 46 23.039 C 44.075 23.498, 39.688 24.015, 36.252 24.187 C 32.816 24.359, 30.003 24.870, 30.002 25.322 C 30.001 25.774, 32.588 25.857, 35.750 25.507 C 42.960 24.709, 52 22.996, 52 22.429 C 52 21.853, 50.211 22.035, 46 23.039 M 127.269 25.693 C 128.242 25.947, 129.592 25.930, 130.269 25.656 C 130.946 25.382, 130.150 25.175, 128.500 25.195 C 126.850 25.215, 126.296 25.439, 127.269 25.693 M 30.743 31.500 C 35.949 37.862, 44 45.718, 44 44.436 C 44 43.897, 40.097 39.641, 35.326 34.978 C 29.128 28.920, 27.820 27.927, 30.743 31.500 M 123.978 36.665 L 115.500 45.330 124.250 37.453 C 131.635 30.805, 134.150 28, 132.728 28 C 132.578 28, 128.641 31.899, 123.978 36.665 M 74.500 35.625 C 72.702 37.155, 72.334 37.763, 73.582 37.143 C 75.415 36.233, 78.853 32.941, 77.872 33.036 C 77.668 33.056, 76.150 34.221, 74.500 35.625 M 84.979 35.346 C 87.903 38.614, 97.831 43.486, 103.500 44.436 C 105.700 44.805, 108.344 45.356, 109.375 45.660 C 110.459 45.981, 110.996 45.803, 110.648 45.239 C 110.316 44.703, 107.897 43.975, 105.272 43.621 C 99.818 42.887, 91.690 39.346, 86.234 35.326 L 82.500 32.576 84.979 35.346 M 67 40 C 65.075 41.054, 63.860 41.935, 64.300 41.958 C 65.359 42.014, 71 39.081, 71 38.474 C 71 37.820, 70.941 37.842, 67 40 M 55 43.618 L 48.500 44.950 54.201 44.552 C 57.336 44.334, 60.711 43.684, 61.701 43.108 C 63.843 41.861, 63.421 41.894, 55 43.618 M 47.814 48.500 C 49.183 51.131, 61 62.729, 61 61.442 C 61 60.894, 57.799 57.308, 53.886 53.473 C 49.974 49.638, 47.241 47.400, 47.814 48.500 M 106.473 54.217 L 99.500 61.434 105.560 55.967 C 110.797 51.242, 114.663 47, 113.732 47 C 113.575 47, 110.308 50.248, 106.473 54.217 M 76.367 57.033 C 75.798 57.602, 73.121 58.931, 70.417 59.987 C 67.712 61.043, 66.175 61.918, 67 61.931 C 69.039 61.965, 76.590 58.472, 77.436 57.104 C 78.295 55.714, 77.724 55.676, 76.367 57.033 M 82.513 57.022 C 83.505 58.627, 91.018 61.968, 93.500 61.908 C 94.765 61.877, 94.179 61.373, 91.906 60.536 C 89.929 59.808, 86.842 58.453, 85.046 57.524 C 83.197 56.568, 82.098 56.350, 82.513 57.022 M 142.100 62 C 143.693 65.489, 152.239 76.824, 153.731 77.426 C 154.409 77.699, 152.384 74.631, 149.231 70.608 C 146.079 66.585, 142.928 62.440, 142.230 61.397 C 141.149 59.783, 141.130 59.873, 142.100 62 M 14.511 65.623 C 13.566 67.066, 13.287 67.941, 13.891 67.567 C 15.045 66.854, 17.374 63, 16.650 63 C 16.419 63, 15.457 64.180, 14.511 65.623 M 64 64.608 C 64 65.158, 65.575 67.134, 67.500 69 C 69.425 70.866, 71 71.942, 71 71.392 C 71 70.842, 69.425 68.866, 67.500 67 C 65.575 65.134, 64 64.058, 64 64.608 M 91.766 67.971 C 89.970 69.605, 88.978 70.955, 89.563 70.971 C 90.148 70.987, 91.919 69.650, 93.500 68 C 97.207 64.131, 96.009 64.111, 91.766 67.971 M 120 69 C 120.589 70.100, 121.295 71, 121.570 71 C 121.845 71, 121.589 70.100, 121 69 C 120.411 67.900, 119.705 67, 119.430 67 C 119.155 67, 119.411 67.900, 120 69 M 9 73 C 7.258 75.200, 6.057 77, 6.332 77 C 6.607 77, 8.258 75.200, 10 73 C 11.742 70.800, 12.943 69, 12.668 69 C 12.393 69, 10.742 70.800, 9 73 M 76.250 70.584 C 74.463 71.366, 73 72.187, 73 72.409 C 73 73.072, 77.401 71.789, 78.750 70.733 C 79.566 70.095, 80.434 70.099, 81.250 70.743 C 82.482 71.718, 88 73.051, 88 72.375 C 88 71.924, 80.951 68.975, 80.128 69.082 C 79.783 69.126, 78.037 69.803, 76.250 70.584 M 100.500 74 C 101.353 75.650, 102.276 77, 102.551 77 C 102.826 77, 102.353 75.650, 101.500 74 C 100.647 72.350, 99.724 71, 99.449 71 C 99.174 71, 99.647 72.350, 100.500 74 M 36.405 73.155 C 35.962 73.870, 36.130 74.038, 36.845 73.595 C 37.998 72.883, 38.393 72, 37.559 72 C 37.316 72, 36.797 72.520, 36.405 73.155 M 123.511 74.377 C 124.457 75.820, 125.419 77, 125.650 77 C 126.374 77, 124.045 73.146, 122.891 72.433 C 122.287 72.059, 122.566 72.934, 123.511 74.377 M 34.405 76.155 C 33.962 76.870, 34.130 77.038, 34.845 76.595 C 35.998 75.883, 36.393 75, 35.559 75 C 35.316 75, 34.797 75.520, 34.405 76.155 M 88.564 77.293 C 88.940 78.279, 89.499 78.834, 89.807 78.526 C 90.115 78.219, 89.808 77.412, 89.124 76.733 C 88.136 75.753, 88.022 75.868, 88.564 77.293 M 2 80.200 C 2 80.669, 4.362 83.926, 7.250 87.436 C 18.387 100.976, 22.361 110.580, 23.528 126.774 C 23.871 131.539, 24.327 135.720, 24.541 136.066 C 24.755 136.412, 28.946 136.981, 33.854 137.329 C 49.024 138.406, 60.950 143.294, 72.500 153.169 C 73.600 154.109, 75.581 155.806, 76.903 156.939 C 79.921 159.527, 80.152 159.515, 83.286 156.611 C 97.765 143.192, 108.229 138.694, 130.177 136.454 L 135.854 135.874 136.437 129.187 C 138.114 109.933, 140.943 102.424, 151.448 89.338 C 155.052 84.849, 158 80.956, 158 80.687 C 158 80.418, 142.813 80.236, 124.250 80.282 C 105.688 80.328, 93.313 80.530, 96.750 80.730 C 102.087 81.042, 103 81.372, 103 82.989 C 103 84.030, 102.550 85.160, 102 85.500 C 101.450 85.840, 101 86.642, 101 87.282 C 101 87.921, 101.741 87.332, 102.646 85.973 C 105.650 81.462, 106.955 81, 116.691 81 C 127.045 81, 127.819 81.637, 123.995 87.007 C 121.052 91.140, 117.010 100.194, 117.079 102.500 C 117.112 103.600, 117.786 102.399, 118.576 99.831 C 119.367 97.262, 121.923 92.312, 124.257 88.831 L 128.500 82.500 141.208 82 C 156.212 81.410, 156.033 81.163, 148.221 91.702 C 145.358 95.563, 141.922 101.147, 140.584 104.111 C 137.901 110.055, 133.644 128.909, 134.488 131.109 C 135.242 133.072, 131.051 134.596, 121.072 135.987 C 110.059 137.522, 103.559 140.042, 94.364 146.342 C 90.224 149.179, 85.748 152.087, 84.418 152.805 C 83.088 153.522, 82 154.535, 82 155.055 C 82 157.277, 78.168 155.641, 71.569 150.601 C 59.024 141.019, 51.020 137.518, 39.142 136.419 C 35.489 136.080, 30.893 135.402, 28.929 134.911 C 25.377 134.024, 25.358 133.989, 25.200 128.249 C 24.995 120.834, 21.877 108.669, 18.431 101.846 C 16.946 98.906, 13.317 93.385, 10.366 89.579 C 7.415 85.772, 5 82.397, 5 82.079 C 5 81.760, 10.737 81.641, 17.750 81.813 C 30.183 82.119, 30.557 82.194, 32.772 84.813 C 37.257 90.115, 40.214 96.304, 42.573 105.327 C 43.892 110.372, 44.699 112.475, 44.366 110 C 43.334 102.345, 40.211 93.738, 36.442 88.166 C 34.458 85.233, 33.082 82.585, 33.384 82.283 C 33.687 81.980, 38.336 81.806, 43.717 81.897 C 53.048 82.053, 53.605 82.186, 55.770 84.780 C 57.019 86.276, 58.675 89.525, 59.451 92 C 60.226 94.475, 60.892 95.564, 60.930 94.419 C 60.969 93.275, 59.946 90.257, 58.658 87.712 C 57.369 85.167, 56.671 82.728, 57.105 82.292 C 57.540 81.857, 60.342 81.651, 63.333 81.836 C 67.731 82.108, 68.971 82.586, 69.818 84.336 C 70.394 85.526, 70.895 86.024, 70.932 85.441 C 70.970 84.859, 70.390 83.548, 69.645 82.529 C 68.388 80.810, 66.090 80.650, 37.895 80.308 C 21.178 80.105, 6.263 79.806, 4.750 79.643 C 3.237 79.480, 2 79.730, 2 80.200 M 68.670 92.614 C 66.564 94.572, 65.086 96.419, 65.387 96.720 C 65.687 97.021, 67.559 95.641, 69.547 93.653 C 73.143 90.057, 73.177 90.047, 76.830 91.515 L 80.500 92.989 78.139 90.995 C 74.848 88.214, 73.078 88.517, 68.670 92.614 M 82.499 90.539 C 80.500 92.163, 80.500 92.163, 82.500 91.453 C 87.574 89.651, 88.511 89.887, 92.484 93.970 L 96.469 98.065 94.003 98.710 C 92.646 99.064, 88.797 100.737, 85.448 102.427 L 79.359 105.500 75.429 103.272 C 73.268 102.047, 69.567 100.380, 67.205 99.568 L 62.910 98.091 55.435 105.192 C 51.323 109.097, 48.193 112.526, 48.478 112.812 C 48.764 113.097, 52.073 110.362, 55.831 106.733 C 62.385 100.406, 62.811 100.168, 66.204 100.933 C 72.236 102.294, 78.873 106.108, 79.200 108.403 C 79.365 109.556, 79.268 113.569, 78.985 117.321 C 78.461 124.258, 79.147 127.350, 80.798 125.492 C 81.283 124.946, 81.357 120.675, 80.962 116 C 80.568 111.325, 80.528 107.186, 80.873 106.802 C 82.424 105.077, 91.438 100.956, 94.794 100.437 C 98.326 99.892, 98.823 100.193, 105.372 106.831 C 112.244 113.796, 113.007 116, 108.546 116 C 104.624 116, 93.725 119.794, 89.652 122.577 C 87.535 124.023, 85.173 125.298, 84.402 125.412 C 83.631 125.525, 82.388 126.455, 81.640 127.478 C 80.347 129.246, 79.936 129.116, 73.389 124.860 C 65.448 119.696, 62.568 118.360, 56.407 116.979 C 45.175 114.462, 46.460 113.981, 36 124.628 C 30.775 129.947, 27.850 133.365, 29.500 132.224 C 31.150 131.084, 35.412 127.192, 38.971 123.575 C 42.587 119.901, 46.309 117, 47.407 117 C 50.822 117, 62.340 120.176, 66.500 122.265 C 68.700 123.370, 72.433 125.598, 74.795 127.216 L 79.091 130.159 78.932 141.632 C 78.783 152.364, 79.166 155.168, 80.585 153.749 C 80.906 153.427, 81.244 147.872, 81.335 141.405 L 81.500 129.645 87.763 125.357 C 94.539 120.719, 101.390 118.221, 109.912 117.283 L 115.323 116.687 123.144 125.028 C 127.445 129.616, 131.278 133.055, 131.663 132.671 C 132.695 131.638, 89.056 89.550, 86.598 89.208 C 85.443 89.047, 83.599 89.646, 82.499 90.539 M 100 90 C 100 90.733, 100.300 91.033, 100.667 90.667 C 101.033 90.300, 101.033 89.700, 100.667 89.333 C 100.300 88.967, 100 89.267, 100 90 M 98 95.500 C 98 96.325, 98.450 97, 99 97 C 99.550 97, 100 96.325, 100 95.500 C 100 94.675, 99.550 94, 99 94 C 98.450 94, 98 94.675, 98 95.500 M 116.160 106.667 C 116.072 107.858, 115.526 108.991, 114.946 109.185 C 114.240 109.420, 114.207 110.354, 114.846 112.018 C 115.637 114.076, 115.914 114.218, 116.470 112.845 C 116.839 111.935, 116.956 109.685, 116.730 107.845 C 116.505 106.005, 116.248 105.475, 116.160 106.667" stroke="none" fill="#5e5e5e" fill-rule="evenodd"/><path d="M 72 6.558 C 59.691 16.794, 45.901 22, 31.101 22 C 27.810 22, 24.839 22.451, 24.498 23.003 C 24.157 23.555, 23.451 28.168, 22.929 33.253 C 21.238 49.728, 17.690 58.353, 7.264 71.337 C 4.202 75.149, 2.155 78.551, 2.637 79.027 C 3.112 79.496, 15.875 79.983, 31 80.110 C 64.278 80.388, 69.554 80.818, 69.363 83.239 C 69.288 84.196, 69.625 84.732, 70.113 84.430 C 72.439 82.993, 70.577 86.526, 67.025 90.289 C 64.082 93.407, 63.044 94.035, 63.025 92.710 C 63.011 91.726, 62.009 89.026, 60.798 86.710 C 59.587 84.395, 58.720 82.063, 58.872 81.528 C 59.024 80.993, 58.215 81.401, 57.074 82.433 C 54.727 84.557, 54.500 85.111, 56.125 84.750 C 56.744 84.612, 57.477 85.125, 57.755 85.889 C 58.093 86.821, 57.837 87.017, 56.975 86.485 C 56.127 85.960, 55.937 86.088, 56.415 86.862 C 56.813 87.506, 57.513 87.801, 57.972 87.517 C 58.830 86.987, 61 92.168, 61 94.746 C 61 96.487, 48.035 110.140, 46.993 109.496 C 46.592 109.248, 45.979 106.897, 45.630 104.272 C 44.932 99.010, 40.640 89.381, 36.636 84.094 C 34.529 81.312, 33.941 80.991, 33.424 82.338 C 33.075 83.246, 32.275 83.694, 31.645 83.334 C 30.990 82.960, 30.857 83.069, 31.333 83.590 C 31.792 84.090, 32.692 84.501, 33.333 84.503 C 33.975 84.504, 34.506 85.260, 34.513 86.182 C 34.520 87.104, 34.929 88.228, 35.423 88.679 C 35.946 89.157, 35.981 88.914, 35.506 88.095 C 34.940 87.121, 35.065 86.922, 35.914 87.447 C 36.586 87.862, 36.897 88.826, 36.604 89.589 C 36.311 90.352, 36.562 90.869, 37.161 90.738 C 37.760 90.607, 38.477 91.125, 38.755 91.889 C 39.093 92.821, 38.837 93.017, 37.975 92.485 C 37.127 91.960, 36.937 92.088, 37.415 92.862 C 37.813 93.506, 38.520 93.797, 38.986 93.509 C 40.355 92.662, 43.075 102.292, 42.528 106.052 C 42.107 108.951, 42.168 109.102, 42.914 107 C 43.445 105.502, 43.841 105.151, 43.900 106.125 C 43.955 107.019, 44.219 109.269, 44.486 111.125 C 44.902 114.010, 44.844 114.137, 44.086 112 L 43.199 109.500 43.100 112.023 C 43.031 113.772, 40.595 116.938, 35.168 122.333 L 27.337 130.118 26.245 121.252 C 25.645 116.376, 24.252 109.823, 23.151 106.690 C 20.986 100.529, 13.735 88.966, 9.617 85.105 C 8.211 83.787, 7.299 82.325, 7.590 81.855 C 7.880 81.385, 7.386 81, 6.492 81 C 5.288 81, 5.041 81.553, 5.540 83.125 C 6.055 84.750, 5.895 85.058, 4.857 84.433 C 3.757 83.771, 3.764 83.941, 4.893 85.332 C 5.658 86.276, 6.517 86.816, 6.800 86.533 C 7.468 85.865, 10 87.961, 10 89.181 C 10 89.697, 9.438 89.780, 8.750 89.367 C 7.870 88.839, 7.899 89.108, 8.846 90.276 C 9.586 91.189, 10.711 91.838, 11.346 91.718 C 11.981 91.598, 12.438 92.283, 12.363 93.239 C 12.288 94.196, 12.594 94.751, 13.044 94.473 C 13.495 94.194, 14.569 94.974, 15.432 96.206 C 17.276 98.840, 17.480 100.415, 15.845 99.405 C 15.124 98.959, 14.963 99.131, 15.415 99.862 C 15.813 100.506, 16.634 100.726, 17.239 100.352 C 17.954 99.910, 18.109 100.273, 17.681 101.388 C 17.238 102.544, 17.401 102.870, 18.181 102.388 C 18.962 101.905, 19.125 102.231, 18.681 103.388 C 18.305 104.368, 18.430 104.852, 18.972 104.517 C 20.944 103.299, 26.478 127.455, 25.279 132.043 C 24.701 134.252, 26.674 134.934, 37 136.090 C 41.675 136.614, 48.341 137.979, 51.813 139.124 C 58.960 141.480, 70.641 148.930, 70.225 150.868 C 70.074 151.572, 70.409 151.865, 70.969 151.519 C 71.530 151.173, 73.496 152.039, 75.339 153.445 C 79.133 156.339, 81.519 156.697, 82.362 154.500 C 82.678 153.675, 83.421 153, 84.012 153 C 84.602 153, 87.470 151.200, 90.384 149 C 95.721 144.970, 97.720 144.025, 96.405 146.155 C 95.959 146.876, 96.131 147.037, 96.862 146.585 C 97.506 146.187, 97.768 145.434, 97.445 144.912 C 96.293 143.046, 109.858 137.795, 119.811 136.254 C 132.569 134.278, 137.119 132.428, 133.984 130.490 C 133.425 130.144, 133.269 129.373, 133.638 128.776 C 134.007 128.179, 133.869 127.963, 133.331 128.295 C 132.793 128.628, 128.819 125.345, 124.500 121 C 120.181 116.655, 116.276 113.329, 115.823 113.609 C 115.371 113.889, 115 113.593, 115 112.951 C 115 111.436, 105.550 101.630, 101.304 98.740 C 99.494 97.508, 98.011 95.938, 98.007 95.250 C 97.998 93.632, 99.659 93.632, 100.426 95.250 C 100.752 95.938, 100.802 94.700, 100.537 92.500 C 100.273 90.300, 100.400 89.050, 100.820 89.722 C 101.964 91.553, 103.744 86.019, 102.982 83 L 102.351 80.500 100.265 83.868 C 99.117 85.720, 97.882 88.816, 97.520 90.747 L 96.861 94.258 93.577 91.074 C 91.281 88.849, 90.324 87.034, 90.396 85.044 C 90.453 83.478, 90.914 82.451, 91.420 82.762 C 91.926 83.074, 92.049 82.571, 91.694 81.645 C 91.096 80.087, 93.532 79.971, 124.524 80.080 C 142.936 80.145, 158 80.455, 158 80.770 C 158 81.085, 157.213 82.278, 156.250 83.421 C 154.502 85.498, 154.502 85.498, 156.750 83.595 C 157.988 82.547, 159 81.237, 159 80.683 C 159 80.130, 156.229 76.095, 152.841 71.716 C 142.027 57.737, 139.529 51.127, 137.267 30.503 L 136.500 23.506 130.500 22.769 C 110.170 20.273, 102.474 17.317, 89.851 7.157 C 85.644 3.770, 81.369 1.034, 80.351 1.076 C 79.333 1.119, 75.575 3.585, 72 6.558 M 83.065 16.258 C 82.974 22.360, 82.680 27.708, 82.412 28.142 C 81.812 29.113, 88.912 34.378, 95 37.476 C 97.475 38.736, 102.822 40.448, 106.881 41.280 L 114.262 42.793 122.631 34.759 C 127.234 30.340, 131 26.307, 131 25.797 C 131 25.283, 128.489 25.073, 125.369 25.325 C 122.272 25.575, 120.284 25.443, 120.952 25.030 C 121.645 24.601, 119.971 23.989, 117.050 23.601 C 114.237 23.228, 111.430 23.234, 110.813 23.616 C 110.081 24.068, 109.973 23.852, 110.502 22.997 C 111.111 22.012, 110.751 21.832, 109.057 22.275 C 107.817 22.599, 107.079 22.588, 107.417 22.250 C 108.289 21.378, 98.843 16.979, 97.664 17.708 C 97.126 18.040, 97.010 17.793, 97.405 17.155 C 97.797 16.520, 97.641 15.944, 97.059 15.875 C 96.477 15.806, 95.588 15.694, 95.083 15.625 C 94.579 15.556, 93.792 15.090, 93.333 14.590 C 92.839 14.049, 93.110 14.013, 94 14.500 C 96.090 15.644, 95.318 14.924, 88.865 9.714 L 83.230 5.164 83.065 16.258 M 75.689 8.287 C 74.693 9.504, 74.183 9.825, 74.555 9 C 74.927 8.175, 73.777 9.075, 72 11 C 70.223 12.925, 69.132 13.825, 69.576 13 C 70.288 11.678, 70.153 11.673, 68.442 12.957 C 67.374 13.758, 65.673 15.333, 64.663 16.457 C 63.653 17.581, 63.177 17.825, 63.605 17 C 64.297 15.667, 64.168 15.667, 62.442 17 C 61.374 17.825, 60.225 18.876, 59.888 19.335 C 59.552 19.795, 58.989 20.132, 58.638 20.085 C 56.274 19.769, 54.971 20.143, 55.493 20.989 C 55.843 21.555, 55.442 21.723, 54.552 21.382 C 53.698 21.054, 53 21.242, 53 21.799 C 53 22.357, 52.030 22.559, 50.844 22.249 C 49.569 21.916, 48.934 22.084, 49.291 22.662 C 49.652 23.246, 48.612 23.482, 46.697 23.248 C 44.859 23.024, 43.991 23.207, 44.655 23.679 C 45.293 24.133, 42.273 24.464, 37.905 24.419 C 32.755 24.367, 30 24.723, 30 25.443 C 30 26.050, 33.591 30.117, 37.980 34.480 L 45.961 42.414 53.225 41.168 C 61.328 39.779, 68.386 36.812, 74.750 32.120 L 79 28.987 79 17.494 C 79 11.172, 78.662 6.017, 78.250 6.037 C 77.838 6.058, 76.685 7.070, 75.689 8.287 M 89.500 12 C 89.840 12.550, 90.343 13, 90.618 13 C 90.893 13, 90.840 12.550, 90.500 12 C 90.160 11.450, 89.657 11, 89.382 11 C 89.107 11, 89.160 11.450, 89.500 12 M 35.813 25.683 C 36.534 25.972, 37.397 25.936, 37.729 25.604 C 38.061 25.272, 37.471 25.036, 36.417 25.079 C 35.252 25.127, 35.015 25.364, 35.813 25.683 M 27.160 31.205 C 26.209 48.477, 20.808 61.917, 9.961 74 L 6.819 77.500 10.004 73 L 13.189 68.500 9.667 72.462 C 7.729 74.641, 6.363 76.779, 6.631 77.212 C 6.899 77.645, 12.379 77.996, 18.809 77.991 L 30.500 77.983 34.137 72.241 C 39.598 63.619, 40.055 62.493, 42.085 52.620 L 43.960 43.500 35.678 35.205 L 27.396 26.911 27.160 31.205 M 124.355 36.301 L 116.354 44.500 117.256 48.500 C 120.302 62.002, 121.526 65.408, 125.416 71.212 L 129.630 77.500 142.398 77.670 C 154.929 77.837, 155.133 77.804, 153.428 75.920 C 151.453 73.739, 150.514 73.388, 151.633 75.250 C 152.143 76.099, 151.842 76.060, 150.692 75.128 C 148.860 73.642, 148.372 72.494, 150 73.500 C 150.550 73.840, 151 73.668, 151 73.118 C 151 72.011, 149.054 70.552, 147.500 70.493 C 146.950 70.472, 146.618 69.738, 146.763 68.861 C 146.908 67.984, 146.259 66.644, 145.321 65.883 C 143.865 64.702, 143.740 64.705, 144.463 65.905 C 145.025 66.838, 144.936 67.079, 144.198 66.622 C 143.587 66.245, 143.303 65.375, 143.566 64.689 C 143.829 64.004, 143.326 62.556, 142.448 61.471 C 141.570 60.387, 141.143 60.175, 141.500 61 C 141.857 61.825, 141.430 61.613, 140.552 60.529 C 139.674 59.444, 139.186 57.959, 139.466 57.227 C 139.747 56.495, 139.589 56.136, 139.115 56.429 C 137.739 57.279, 134.740 45.213, 134.218 36.729 C 133.956 32.455, 133.429 28.765, 133.048 28.530 C 132.667 28.294, 128.755 31.791, 124.355 36.301 M 28 29.378 C 28 29.585, 28.788 30.373, 29.750 31.128 C 31.336 32.371, 31.371 32.336, 30.128 30.750 C 28.821 29.084, 28 28.555, 28 29.378 M 73.466 36.727 C 71.327 38.802, 69.929 39.930, 70.358 39.233 C 70.878 38.390, 69.959 38.529, 67.612 39.648 C 65.673 40.573, 64.348 41.754, 64.668 42.272 C 65.013 42.830, 64.332 42.923, 63 42.500 C 61.326 41.969, 60.949 42.109, 61.529 43.047 C 62.018 43.839, 61.904 44.059, 61.223 43.638 C 60.625 43.269, 57.536 43.272, 54.356 43.646 C 50.167 44.138, 49.116 44.536, 50.538 45.092 C 51.782 45.579, 51.962 45.885, 51.029 45.930 C 50.197 45.969, 52.368 48.846, 56.029 52.552 C 62.120 58.720, 62.706 59.068, 66 58.473 C 67.925 58.126, 71.300 56.857, 73.500 55.654 L 77.500 53.466 78.228 44.011 C 78.628 38.811, 78.595 34.195, 78.155 33.755 C 77.714 33.314, 75.604 34.652, 73.466 36.727 M 82.667 33.667 C 82.300 34.033, 82 38.526, 82 43.650 L 82 52.966 86.750 55.360 C 95.870 59.956, 96.654 59.823, 104.246 52.395 C 107.956 48.765, 110.710 45.340, 110.366 44.783 C 110.015 44.215, 107.958 44.011, 105.672 44.317 C 103.435 44.617, 102.179 44.507, 102.883 44.073 C 103.735 43.546, 103.099 43.070, 100.978 42.646 C 99.227 42.295, 97.321 42.301, 96.743 42.659 C 96.153 43.024, 95.985 42.834, 96.360 42.227 C 96.728 41.631, 96.157 40.867, 95.090 40.529 C 94.024 40.190, 91.511 38.800, 89.507 37.440 C 87.502 36.080, 85.475 35.207, 85 35.500 C 84.526 35.793, 83.813 35.506, 83.415 34.862 C 82.932 34.081, 83.127 33.961, 84 34.500 C 84.866 35.035, 85.068 34.918, 84.595 34.155 C 83.768 32.815, 83.569 32.765, 82.667 33.667 M 76.405 35.155 C 75.962 35.870, 76.130 36.038, 76.845 35.595 C 77.480 35.203, 78 34.684, 78 34.441 C 78 33.607, 77.117 34.002, 76.405 35.155 M 121.462 40.250 L 116.500 45.500 121.750 40.538 C 124.638 37.808, 127 35.446, 127 35.288 C 127 34.541, 126.074 35.372, 121.462 40.250 M 47.211 48.175 C 46.588 54.914, 42.277 68.289, 40.985 67.491 C 40.567 67.233, 40.288 67.804, 40.363 68.761 C 40.438 69.717, 39.954 70.393, 39.286 70.262 C 38.618 70.131, 38.311 70.648, 38.604 71.411 C 38.897 72.174, 38.586 73.138, 37.914 73.553 C 37.080 74.068, 36.949 73.892, 37.500 73 C 38.024 72.152, 37.918 71.933, 37.198 72.378 C 36.587 72.755, 36.323 73.679, 36.612 74.431 C 36.900 75.183, 36.586 76.138, 35.914 76.553 C 35.080 77.068, 34.949 76.892, 35.500 76 C 36.039 75.127, 35.919 74.932, 35.138 75.415 C 32.419 77.095, 35.708 78, 44.533 78 L 53.949 78 55.571 74.864 C 56.463 73.139, 58.033 69.201, 59.060 66.114 L 60.927 60.500 54.130 53.675 C 50.392 49.922, 47.278 47.447, 47.211 48.175 M 106.473 54.027 C 102.638 57.892, 99.635 61.154, 99.800 61.277 C 99.965 61.400, 100.550 63.525, 101.099 66 C 101.649 68.475, 103.208 72.188, 104.563 74.250 L 107.028 78 115.955 78 C 120.865 78, 125.131 77.597, 125.436 77.104 C 125.740 76.611, 125.204 75.353, 124.245 74.307 C 123.285 73.261, 122.950 73.076, 123.500 73.895 C 124.239 74.995, 124.175 75.189, 123.255 74.636 C 122.571 74.225, 121.513 72.959, 120.906 71.824 C 120.062 70.248, 120.085 69.934, 121 70.500 C 121.921 71.069, 121.936 70.749, 121.065 69.121 C 120.440 67.954, 119.469 67, 118.906 67 C 118.343 67, 118.136 66.588, 118.447 66.085 C 118.758 65.582, 118.545 65.015, 117.974 64.825 C 116.815 64.438, 114.204 55.272, 113.822 50.250 C 113.686 48.462, 113.546 47, 113.510 47 C 113.475 47, 110.308 50.162, 106.473 54.027 M 105.462 56.250 L 100.500 61.500 105.750 56.538 C 108.638 53.808, 111 51.446, 111 51.288 C 111 50.541, 110.074 51.372, 105.462 56.250 M 75.766 57.381 C 74.812 58.105, 74.348 59.015, 74.735 59.402 C 75.122 59.789, 74.591 59.780, 73.555 59.383 C 72.320 58.909, 71.901 59.031, 72.337 59.737 C 72.768 60.434, 72.241 60.614, 70.845 60.249 C 69.462 59.888, 68.924 60.067, 69.345 60.749 C 69.759 61.419, 69.262 61.620, 68.001 61.290 C 65.076 60.525, 65.549 62.170, 69.298 65.804 C 74.943 71.276, 78.256 69.452, 77.875 61.083 C 77.747 58.288, 77.610 56.014, 77.571 56.032 C 77.532 56.049, 76.719 56.656, 75.766 57.381 M 82 61.496 C 82 66.460, 82.266 67.164, 84.530 68.195 C 86.822 69.240, 87.434 68.982, 91.055 65.447 L 95.050 61.545 91.681 60.379 C 89.828 59.738, 86.892 58.478, 85.156 57.581 L 82 55.949 82 61.496 M 14.511 65.623 C 13.566 67.066, 13.287 67.941, 13.891 67.567 C 15.045 66.854, 17.374 63, 16.650 63 C 16.419 63, 15.457 64.180, 14.511 65.623 M 63.652 65.059 C 61.902 70.899, 59.708 75.937, 59.082 75.550 C 58.670 75.296, 58.333 75.743, 58.333 76.544 C 58.333 77.617, 59.600 78, 63.153 78 C 67.766 78, 68.040 77.841, 69.519 74.299 L 71.066 70.599 67.575 67.108 C 65.046 64.579, 63.965 64.015, 63.652 65.059 M 92.102 67.568 C 89.204 70.006, 89.115 70.297, 90.344 73.318 C 91.516 76.199, 92.132 76.550, 96.870 77.033 C 99.747 77.325, 102.286 77.381, 102.511 77.156 C 103.152 76.515, 100.055 71, 99.054 71 C 98.562 71, 97.862 69.650, 97.500 68 C 96.696 64.339, 96.005 64.284, 92.102 67.568 M 79.595 70.155 C 80.018 70.838, 79.872 71.039, 79.238 70.647 C 78.650 70.283, 77.005 70.428, 75.584 70.968 C 73.576 71.731, 73 72.638, 73 75.034 C 73 76.730, 72.612 77.878, 72.138 77.585 C 71.017 76.893, 71.358 79.698, 72.860 83.540 C 74.509 87.756, 78.911 89.353, 83.545 87.417 C 85.634 86.544, 87 85.276, 87 84.209 C 87 83.239, 87.727 81.407, 88.616 80.138 C 89.911 78.289, 89.981 77.600, 88.969 76.666 C 87.988 75.760, 87.885 75.813, 88.508 76.905 C 89.068 77.886, 88.933 78.077, 88.060 77.537 C 87.374 77.113, 87.020 75.675, 87.275 74.342 C 87.659 72.332, 87.142 71.668, 84.247 70.459 C 80.038 68.700, 78.640 68.609, 79.595 70.155 M 74.333 72.667 C 74.700 73.033, 75.300 73.033, 75.667 72.667 C 76.033 72.300, 75.733 72, 75 72 C 74.267 72, 73.967 72.300, 74.333 72.667 M 116.720 81.743 L 124.939 82.080 121.356 87.067 C 116.247 94.179, 111.952 109, 115 109 C 115.550 109, 116.053 107.987, 116.118 106.750 C 116.216 104.888, 116.383 105.017, 117.084 107.500 C 117.770 109.925, 117.848 109.602, 117.495 105.818 C 117.029 100.843, 118.597 94.633, 120.086 95.553 C 120.576 95.856, 120.681 95.332, 120.319 94.388 C 119.875 93.231, 120.038 92.905, 120.819 93.388 C 121.599 93.870, 121.762 93.544, 121.319 92.388 C 120.891 91.273, 121.046 90.910, 121.761 91.352 C 122.366 91.726, 123.187 91.506, 123.585 90.862 C 124.063 90.088, 123.873 89.960, 123.025 90.485 C 122.169 91.014, 121.895 90.815, 122.204 89.889 C 122.458 89.125, 123.154 88.500, 123.750 88.500 C 124.346 88.500, 125.208 88.090, 125.667 87.590 C 126.159 87.052, 125.935 87.007, 125.120 87.479 C 124.171 88.029, 123.898 87.845, 124.245 86.889 C 124.523 86.125, 125.213 85.598, 125.779 85.718 C 126.345 85.838, 127.414 85.163, 128.154 84.218 C 129.368 82.668, 129.329 82.634, 127.750 83.872 C 126.202 85.087, 126 85, 126 83.122 C 126 81.105, 125.566 81.010, 117.250 81.204 L 108.500 81.407 116.720 81.743 M 148.500 87.520 C 138.613 100.266, 133.355 113.520, 134.181 123.608 C 134.450 126.896, 134.779 126.103, 136.294 118.500 C 138.194 108.971, 143.315 96.459, 144.912 97.445 C 145.434 97.768, 146.187 97.506, 146.585 96.862 C 147.063 96.088, 146.873 95.960, 146.025 96.485 C 145.169 97.014, 144.895 96.815, 145.204 95.889 C 145.458 95.125, 146.304 94.500, 147.082 94.500 C 147.860 94.500, 148.498 93.600, 148.499 92.500 C 148.499 91.400, 149.009 90.595, 149.631 90.710 C 150.253 90.826, 151.603 89.934, 152.631 88.728 C 154.209 86.876, 154.228 86.745, 152.750 87.890 C 150.792 89.406, 150.340 88.060, 152.186 86.214 C 153.191 85.209, 154.479 80.926, 153.744 81.037 C 153.610 81.057, 151.250 83.974, 148.500 87.520 M 104.405 83.155 C 103.962 83.870, 104.130 84.038, 104.845 83.595 C 105.998 82.883, 106.393 82, 105.559 82 C 105.316 82, 104.797 82.520, 104.405 83.155 M 101.459 86.067 C 101.096 86.653, 101.014 87.348, 101.276 87.610 C 101.538 87.872, 102.019 87.392, 102.345 86.543 C 103.021 84.781, 102.445 84.471, 101.459 86.067 M 58 90 C 58 90.733, 58.300 91.033, 58.667 90.667 C 59.033 90.300, 59.033 89.700, 58.667 89.333 C 58.300 88.967, 58 89.267, 58 90 M 68.750 92.541 C 65.085 95.948, 64.239 97.161, 65.750 96.841 C 66.775 96.624, 69.777 97.726, 74.250 99.960 L 78 101.834 78 96.858 C 78 93.205, 78.332 92.051, 79.250 92.517 C 79.938 92.867, 79.438 92.218, 78.139 91.076 C 74.886 88.215, 73.104 88.493, 68.750 92.541 M 83 89.939 C 81.888 90.590, 81.586 92.211, 81.831 96.215 L 82.163 101.614 86.831 99.360 C 92.287 96.727, 94.938 96.099, 94.696 97.500 C 94.601 98.050, 92.149 99.465, 89.248 100.644 C 79.342 104.670, 79.234 104.813, 79.098 114.129 C 79.032 118.654, 78.728 122.605, 78.424 122.910 C 78.119 123.215, 77.962 119.250, 78.075 114.100 C 78.247 106.301, 78.006 104.583, 76.633 103.814 C 75.726 103.307, 74.468 103.211, 73.838 103.600 C 73.130 104.038, 72.964 103.867, 73.405 103.155 C 73.797 102.520, 73.979 102, 73.809 101.999 C 73.639 101.999, 71.137 101.101, 68.249 100.003 L 62.998 98.007 55.444 105.183 C 47.277 112.941, 47.262 113.251, 55 114.503 C 61.387 115.536, 67.945 118.178, 73.344 121.893 C 75.905 123.655, 78.007 124.737, 78.015 124.298 C 78.024 123.859, 78.436 124.140, 78.931 124.922 C 79.661 126.076, 81.096 125.521, 86.531 121.980 C 93.925 117.162, 101.760 114.083, 106.750 114.033 C 108.537 114.015, 110 113.523, 110 112.941 C 110 112.359, 110.474 112.175, 111.053 112.533 C 113.274 113.906, 111.150 115.396, 105.259 116.598 C 97.818 118.115, 89.635 121.600, 90.443 122.907 C 90.767 123.432, 90.506 124.187, 89.862 124.585 C 89.088 125.063, 88.960 124.873, 89.485 124.025 C 90.014 123.169, 89.815 122.895, 88.889 123.204 C 88.125 123.458, 87.500 124.154, 87.500 124.750 C 87.500 125.346, 87.090 126.208, 86.590 126.667 C 86.065 127.147, 85.969 126.996, 86.361 126.311 C 86.805 125.537, 86.308 125.176, 84.940 125.280 C 83.783 125.367, 82.395 126.261, 81.857 127.267 C 81.153 128.583, 80.267 128.902, 78.697 128.404 C 76.817 127.807, 76.693 127.925, 77.794 129.252 C 78.701 130.345, 78.978 133.797, 78.747 141.146 L 78.422 151.500 78.211 140.809 C 78.094 134.886, 77.547 129.838, 76.984 129.490 C 76.425 129.144, 76.221 128.451, 76.531 127.949 C 77.100 127.030, 68.920 121.460, 63.676 119.195 C 60.797 117.952, 54.541 116.392, 48.731 115.470 C 45.723 114.993, 44.843 115.632, 36 124.714 C 30.775 130.080, 27.084 133.983, 27.798 133.387 C 28.620 132.701, 30.455 132.594, 32.798 133.095 C 34.834 133.530, 39.875 134.365, 44 134.952 C 53.157 136.253, 63.019 140.890, 71.750 148.001 C 75.188 150.800, 78.007 152.733, 78.015 152.295 C 78.024 151.858, 78.474 152.175, 79.015 153 C 79.891 154.333, 80.109 154.333, 80.985 153 C 81.526 152.175, 81.976 151.879, 81.985 152.343 C 81.993 152.807, 84.211 151.335, 86.914 149.072 C 93.973 143.162, 102.586 138.208, 109.500 136.082 C 114.901 134.421, 129.218 132.300, 131.344 132.846 C 133.518 133.404, 129.996 129.672, 109.843 110.068 C 97.255 97.823, 87.413 89.013, 86.343 89.030 C 85.329 89.047, 83.825 89.456, 83 89.939 M 72.333 90.667 C 72.700 91.033, 73.300 91.033, 73.667 90.667 C 74.033 90.300, 73.733 90, 73 90 C 72.267 90, 71.967 90.300, 72.333 90.667 M 88 90.313 C 88 90.485, 89.463 91.948, 91.250 93.563 L 94.500 96.500 91.563 93.250 C 88.825 90.221, 88 89.540, 88 90.313 M 59.079 93.583 C 59.127 94.748, 59.364 94.985, 59.683 94.188 C 59.972 93.466, 59.936 92.603, 59.604 92.271 C 59.272 91.939, 59.036 92.529, 59.079 93.583 M 39 96 C 39 96.733, 39.300 97.033, 39.667 96.667 C 40.033 96.300, 40.033 95.700, 39.667 95.333 C 39.300 94.967, 39 95.267, 39 96 M 119 98 C 119 98.733, 119.300 99.033, 119.667 98.667 C 120.033 98.300, 120.033 97.700, 119.667 97.333 C 119.300 96.967, 119 97.267, 119 98 M 40 99 C 40 99.733, 40.300 100.033, 40.667 99.667 C 41.033 99.300, 41.033 98.700, 40.667 98.333 C 40.300 97.967, 40 98.267, 40 99 M 142.452 102.093 C 141.572 103.794, 141.030 105.363, 141.247 105.580 C 141.464 105.797, 142.390 104.406, 143.305 102.487 C 145.361 98.175, 144.649 97.845, 142.452 102.093 M 103.500 106 C 106.766 109.300, 109.662 112, 109.937 112 C 110.212 112, 107.766 109.300, 104.500 106 C 101.234 102.700, 98.338 100, 98.063 100 C 97.788 100, 100.234 102.700, 103.500 106 M 118.079 101.583 C 118.127 102.748, 118.364 102.985, 118.683 102.188 C 118.972 101.466, 118.936 100.603, 118.604 100.271 C 118.272 99.939, 118.036 100.529, 118.079 101.583 M 41 102 C 41 102.733, 41.300 103.033, 41.667 102.667 C 42.033 102.300, 42.033 101.700, 41.667 101.333 C 41.300 100.967, 41 101.267, 41 102 M 55.469 107.250 L 49.500 113.500 55.750 107.531 C 61.556 101.987, 62.458 101, 61.719 101 C 61.564 101, 58.751 103.813, 55.469 107.250 M 83.405 105.155 C 82.962 105.870, 83.130 106.038, 83.845 105.595 C 84.998 104.883, 85.393 104, 84.559 104 C 84.316 104, 83.797 104.520, 83.405 105.155 M 19 107 C 19 107.733, 19.300 108.033, 19.667 107.667 C 20.033 107.300, 20.033 106.700, 19.667 106.333 C 19.300 105.967, 19 106.267, 19 107 M 80.706 106.750 C 80.479 107.162, 80.610 111.100, 80.996 115.500 L 81.698 123.500 81.849 114.750 C 81.989 106.610, 81.740 104.867, 80.706 106.750 M 139.624 108.539 C 139.281 109.432, 139.029 110.689, 139.063 111.332 C 139.098 111.974, 139.558 111.422, 140.085 110.105 C 140.612 108.787, 140.864 107.531, 140.645 107.312 C 140.426 107.093, 139.966 107.645, 139.624 108.539 M 20 110 C 20 110.733, 20.300 111.033, 20.667 110.667 C 21.033 110.300, 21.033 109.700, 20.667 109.333 C 20.300 108.967, 20 109.267, 20 110 M 21.079 114.583 C 21.127 115.748, 21.364 115.985, 21.683 115.188 C 21.972 114.466, 21.936 113.603, 21.604 113.271 C 21.272 112.939, 21.036 113.529, 21.079 114.583 M 138.158 115 C 138.158 116.375, 138.385 116.938, 138.662 116.250 C 138.940 115.563, 138.940 114.438, 138.662 113.750 C 138.385 113.063, 138.158 113.625, 138.158 115 M 22.195 119.500 C 22.215 121.150, 22.439 121.704, 22.693 120.731 C 22.947 119.758, 22.930 118.408, 22.656 117.731 C 22.382 117.054, 22.175 117.850, 22.195 119.500 M 38 124.500 C 33.903 128.625, 30.775 132, 31.050 132 C 31.325 132, 34.903 128.625, 39 124.500 C 43.097 120.375, 46.225 117, 45.950 117 C 45.675 117, 42.097 120.375, 38 124.500 M 49.333 117.667 C 49.700 118.033, 50.300 118.033, 50.667 117.667 C 51.033 117.300, 50.733 117, 50 117 C 49.267 117, 48.967 117.300, 49.333 117.667 M 107.333 117.667 C 107.700 118.033, 108.300 118.033, 108.667 117.667 C 109.033 117.300, 108.733 117, 108 117 C 107.267 117, 106.967 117.300, 107.333 117.667 M 118.958 121.250 C 123.102 125.665, 124 126.459, 124 125.708 C 124 125.548, 121.862 123.410, 119.250 120.958 L 114.500 116.500 118.958 121.250 M 137.272 122 C 137.272 124.475, 137.467 125.487, 137.706 124.250 C 137.944 123.013, 137.944 120.987, 137.706 119.750 C 137.467 118.513, 137.272 119.525, 137.272 122 M 23.158 127 C 23.158 128.375, 23.385 128.938, 23.662 128.250 C 23.940 127.563, 23.940 126.438, 23.662 125.750 C 23.385 125.063, 23.158 125.625, 23.158 127 M 82.086 129.396 C 81.322 130.317, 81.038 134.317, 81.253 141.146 L 81.578 151.500 81.789 140.950 C 81.921 134.344, 82.449 129.951, 83.200 129.200 C 83.860 128.540, 84.140 128, 83.822 128 C 83.505 128, 82.724 128.628, 82.086 129.396 M 23.195 132.500 C 23.215 134.150, 23.439 134.704, 23.693 133.731 C 23.947 132.758, 23.930 131.408, 23.656 130.731 C 23.382 130.054, 23.175 130.850, 23.195 132.500 M 136.195 132.500 C 136.215 134.150, 136.439 134.704, 136.693 133.731 C 136.947 132.758, 136.930 131.408, 136.656 130.731 C 136.382 130.054, 136.175 130.850, 136.195 132.500 M 131.813 136.683 C 132.534 136.972, 133.397 136.936, 133.729 136.604 C 134.061 136.272, 133.471 136.036, 132.417 136.079 C 131.252 136.127, 131.015 136.364, 131.813 136.683 M 35.333 137.667 C 35.700 138.033, 36.300 138.033, 36.667 137.667 C 37.033 137.300, 36.733 137, 36 137 C 35.267 137, 34.967 137.300, 35.333 137.667 M 120.333 137.667 C 120.700 138.033, 121.300 138.033, 121.667 137.667 C 122.033 137.300, 121.733 137, 121 137 C 120.267 137, 119.967 137.300, 120.333 137.667 M 110.333 139.667 C 110.700 140.033, 111.300 140.033, 111.667 139.667 C 112.033 139.300, 111.733 139, 111 139 C 110.267 139, 109.967 139.300, 110.333 139.667 M 92.405 149.155 C 91.962 149.870, 92.130 150.038, 92.845 149.595 C 93.480 149.203, 94 148.684, 94 148.441 C 94 147.607, 93.117 148.002, 92.405 149.155 M 87.872 152.750 C 86.629 154.336, 86.664 154.371, 88.250 153.128 C 89.916 151.821, 90.445 151, 89.622 151 C 89.415 151, 88.627 151.787, 87.872 152.750 M 83.405 156.155 C 82.962 156.870, 83.130 157.038, 83.845 156.595 C 84.480 156.203, 85 155.684, 85 155.441 C 85 154.607, 84.117 155.002, 83.405 156.155" stroke="none" fill="#999999" fill-rule="evenodd"/></svg>